<svg width="206" height="38" viewBox="0 0 206 38" fill="none" xmlns="http://www.w3.org/2000/svg">
<path d="M31.5798 16.6258C26.3827 7.6264 20.779 0.752161 19.5009 0.914041C18.2228 0.752161 12.6173 7.62452 7.42208 16.6258C2.22499 25.627 -0.653081 33.4443 0.1262 34.4721C0.414195 35.1591 3.37132 35.9441 7.82301 36.4862C9.14817 36.648 10.6051 36.7798 12.1636 36.8946C15.4954 37.1431 18.3377 36.808 20.3047 34.4006C22.7197 31.4415 22.7254 26.5362 20.0374 22.4252C19.9 22.2144 19.58 22.3556 19.6139 22.604C19.7776 23.8031 19.8285 25.4501 19.4878 27.3268C19.0906 29.5103 17.4925 31.2213 15.3128 31.2213C13.5302 31.2213 12.0074 30.107 11.4013 28.539C10.7632 26.8807 11.3655 24.8798 12.0884 22.9447C14.0422 17.7138 17.9141 13.1416 18.893 12.1214C19.2713 11.728 19.7023 11.7016 20.107 12.1214C21.4303 13.4992 28.0542 21.3843 28.0542 28.6068C28.0542 32.0759 26.0006 35.0631 23.0416 36.424C22.699 36.5822 22.8006 37.1017 23.179 37.0885C31.8283 36.7949 38.4352 35.5168 38.8738 34.4721C39.6531 33.4443 36.775 25.627 31.5798 16.6277V16.6258Z" fill="url(#paint0_radial_4403_2895)"/>
<path d="M62.4808 22.6699L64.6412 22.94V28H51.1242L50.8399 25.5837C51.0957 25.252 51.6311 24.9299 52.446 24.6172V11.3133C51.6406 11.029 51.1052 10.7021 50.8399 10.3326L51.1242 7.91626H64.3996V12.9763L62.2534 13.2463C61.7985 12.8578 61.4385 12.1377 61.1731 11.0859H56.639V16.089H60.6757C60.9126 15.5205 61.1542 15.1131 61.4006 14.8667L63.2341 15.0799V20.2536L61.4006 20.4952C61.1637 20.2963 60.922 19.8888 60.6757 19.2729H56.639V24.8304H61.4006C61.6564 23.807 62.0165 23.0869 62.4808 22.6699ZM73.1978 16.1885C71.4164 16.1885 70.5257 17.7189 70.5257 20.7795C70.5257 22.3335 70.772 23.4185 71.2648 24.0344C71.7575 24.6409 72.4729 24.9441 73.411 24.9441C74.8608 24.9441 76.159 24.8067 77.3055 24.5319L78.1868 26.7776C77.5614 27.1851 76.7228 27.531 75.671 27.8152C74.6286 28.09 73.61 28.2274 72.615 28.2274C68.4268 28.2274 66.3327 25.8016 66.3327 20.9501C66.3327 18.1074 67.0623 16.0701 68.5215 14.8383C69.8197 13.758 71.4022 13.2179 73.2689 13.2179C75.1356 13.2179 76.6849 13.5638 77.9167 14.2555C77.9262 14.3503 77.9309 14.445 77.9309 14.5398C77.9404 14.6345 77.9451 14.7245 77.9451 14.8098C77.9451 15.9185 77.694 16.9656 77.1918 17.951H74.6334C74.3586 17.4583 74.1928 16.8803 74.1359 16.217C74.0127 16.2075 73.8706 16.2028 73.7095 16.2028C73.5579 16.1933 73.3873 16.1885 73.1978 16.1885ZM93.4379 20.3673C93.4379 22.2625 93.1157 23.7881 92.4714 24.9441C91.827 26.0906 90.9505 26.9245 89.8419 27.4457C88.7427 27.9574 87.5014 28.2132 86.1179 28.2132C83.9575 28.2132 82.2945 27.6399 81.129 26.4934C79.9729 25.3373 79.3949 23.3995 79.3949 20.68C79.3949 18.2353 80.0345 16.3828 81.3137 15.1225C82.6024 13.8528 84.3602 13.2179 86.587 13.2179C88.8611 13.2179 90.5715 13.777 91.7181 14.8951C92.8646 16.0132 93.4379 17.8373 93.4379 20.3673ZM83.6305 20.609C83.6305 23.7075 84.5639 25.2568 86.4306 25.2568C87.3782 25.2568 88.0794 24.9062 88.5342 24.205C88.9891 23.4943 89.2165 22.3335 89.2165 20.7227C89.2165 17.6999 88.2642 16.1885 86.3595 16.1885C85.4309 16.1885 84.7439 16.5249 84.2986 17.1977C83.8532 17.861 83.6305 18.9981 83.6305 20.609ZM110.821 13.8007C110.821 15.1178 110.409 16.2217 109.584 17.1124C108.76 18.0031 107.727 18.6807 106.486 19.145C107.452 19.5524 108.092 20.0499 108.405 20.6374L110.523 24.6882C111.451 24.982 112.077 25.3373 112.399 25.7543L112.1 28H107.182L103.828 20.8648C103.534 20.1446 103.179 19.7846 102.762 19.7846H100.872V24.4466C102.274 24.7593 103.155 25.1383 103.515 25.5837L103.217 28H95.3567L95.0724 25.5837C95.3283 25.252 95.8637 24.9299 96.6786 24.6172V11.3133C95.8731 11.029 95.3378 10.7021 95.0724 10.3326L95.3567 7.91626H102.79C104.6 7.93521 106.097 8.12946 107.282 8.49902C108.466 8.85909 109.352 9.46554 109.94 10.3183C110.527 11.1617 110.821 12.3225 110.821 13.8007ZM102.577 11.0859H100.872V16.615H102.52C103.847 16.615 104.832 16.416 105.477 16.018C106.131 15.62 106.457 14.9046 106.457 13.8717C106.457 12.8484 106.126 12.1282 105.463 11.7113C104.809 11.2943 103.847 11.0859 102.577 11.0859ZM120.174 28.2274C117.843 28.2274 116.09 27.6068 114.915 26.3654C113.74 25.1241 113.152 23.319 113.152 20.9501C113.152 19.5193 113.356 18.2874 113.763 17.2546C114.171 16.2122 114.725 15.4068 115.426 14.8383C116.781 13.758 118.364 13.2179 120.174 13.2179C121.377 13.2179 122.391 13.4169 123.215 13.8149C124.049 14.2034 124.679 14.8619 125.106 15.7906C125.542 16.7097 125.759 17.9652 125.759 19.5572C125.759 20.9596 125.068 21.6608 123.684 21.6608H117.374C117.449 22.8831 117.762 23.7454 118.312 24.2476C118.871 24.7498 119.752 25.0009 120.955 25.0009C121.609 25.0009 122.235 24.9251 122.832 24.7735C123.438 24.6124 123.879 24.4561 124.153 24.3045L124.566 24.0771L125.433 26.3939C125.328 26.5171 125.163 26.6876 124.935 26.9056C124.783 27.0477 124.476 27.223 124.011 27.4315C123.547 27.6399 122.978 27.8247 122.306 27.9858C121.642 28.1469 120.932 28.2274 120.174 28.2274ZM117.402 19.2445L122.007 19.0597C122.045 18.8228 122.064 18.4959 122.064 18.0789C122.064 17.6904 121.908 17.2782 121.595 16.8424C121.282 16.4065 120.742 16.1885 119.975 16.1885C119.207 16.1885 118.62 16.4207 118.212 16.885C117.805 17.3493 117.535 18.1358 117.402 19.2445ZM148.416 16.7997L144.777 28.1706H140.996L139.504 23.5796C139.21 22.6415 138.969 21.476 138.779 20.0831L138.694 19.3866H138.282C138.187 20.1446 138.064 20.8695 137.912 21.5613C137.77 22.253 137.604 22.9163 137.415 23.5512L136.05 28.1706H131.914L128.247 16.7287C127.413 16.4444 126.84 16.0985 126.527 15.6911L126.811 13.4453H133.634L133.918 15.6911C133.567 16.0985 132.975 16.4444 132.141 16.7287L133.833 24.1623H134.245C134.349 23.6412 134.463 23.12 134.586 22.5989C134.709 22.0682 134.847 21.5281 134.998 20.9785L136.974 13.5022H140.243L142.19 20.9217L142.915 24.1623H143.327C144.038 20.8743 144.521 18.6712 144.777 17.553L144.948 16.7287C144.085 16.4349 143.507 16.089 143.214 15.6911L143.498 13.4453H149.965L150.249 15.6911C149.927 16.127 149.316 16.4965 148.416 16.7997ZM151.543 15.6058C151.543 15.4542 151.543 15.3026 151.543 15.151C151.552 14.9899 151.562 14.8288 151.571 14.6677C153.381 13.7012 155.324 13.2179 157.399 13.2179C159.474 13.2179 160.962 13.6112 161.862 14.3976C162.762 15.1841 163.212 16.487 163.212 18.3064V24.5035C163.885 24.6456 164.42 24.8114 164.818 25.0009V27.531C163.852 27.9953 162.435 28.2274 160.568 28.2274C160.369 27.7063 160.204 27.0951 160.071 26.3939C159.237 27.6162 157.726 28.2274 155.537 28.2274C154.675 28.2274 153.883 28.0569 153.163 27.7157C152.453 27.3746 151.884 26.8913 151.458 26.2659C151.031 25.6311 150.818 24.8778 150.818 24.006C150.818 22.7078 151.249 21.6892 152.111 20.9501C152.974 20.2015 154.258 19.8272 155.963 19.8272H159.147V18.4201C159.147 16.904 158.342 16.1459 156.731 16.1459C156.105 16.1459 155.608 16.2075 155.238 16.3307C155.191 17.1551 155.077 17.7852 154.897 18.2211H152.04C151.709 17.5294 151.543 16.6576 151.543 15.6058ZM156.788 25.2568C157.783 25.2568 158.569 24.9678 159.147 24.3898V22.0019H157.1C155.707 22.0019 155.011 22.5373 155.011 23.608C155.011 24.0913 155.158 24.4893 155.452 24.802C155.755 25.1052 156.2 25.2568 156.788 25.2568ZM174.583 17.0271C173.124 17.0271 172.105 17.3067 171.527 17.8657V24.5319C173.119 24.8351 174.199 25.2426 174.768 25.7543L174.469 28H166.14L165.856 25.7543C166.121 25.3847 166.657 25.0578 167.462 24.7735V16.6718C166.77 16.4444 166.235 16.1175 165.856 15.6911L166.14 13.4453C167.183 13.2084 168.144 13.09 169.026 13.09C169.452 13.09 169.84 13.0995 170.191 13.1184C170.551 13.1279 170.873 13.1421 171.158 13.1611V14.9946C171.603 14.464 172.176 14.0281 172.877 13.687C173.465 13.4122 174.052 13.2511 174.64 13.2037C175.227 13.1563 175.668 13.199 175.962 13.3316L175.876 17.1124C175.497 17.0556 175.066 17.0271 174.583 17.0271ZM184.419 9.57925L184.703 7.33351C185.812 7.07766 186.873 6.94974 187.887 6.94974C188.891 6.94974 189.754 6.97817 190.474 7.03502V24.5035C191.071 24.6077 191.606 24.7735 192.08 25.0009V27.3035C190.905 27.9195 189.427 28.2274 187.645 28.2274C187.456 28.1327 187.266 27.9621 187.077 27.7157C186.897 27.4599 186.797 27.2135 186.778 26.9766C186.352 27.3272 185.798 27.6257 185.115 27.8721C184.433 28.109 183.765 28.2274 183.111 28.2274C181.017 28.2274 179.496 27.6636 178.549 26.536C177.611 25.3989 177.141 23.5369 177.141 20.9501C177.141 18.0221 177.862 15.9659 179.302 14.7814C180.572 13.7391 182.121 13.2179 183.95 13.2179C184.746 13.2179 185.561 13.3127 186.394 13.5022V10.6168C185.513 10.3799 184.855 10.0341 184.419 9.57925ZM183.722 25.2568C184.84 25.2568 185.731 24.9299 186.394 24.2761V16.4728C185.58 16.2833 184.736 16.1885 183.864 16.1885C182.974 16.1885 182.329 16.577 181.931 17.3541C181.533 18.1311 181.334 19.306 181.334 20.879C181.334 22.4425 181.529 23.5654 181.917 24.2476C182.306 24.9204 182.907 25.2568 183.722 25.2568ZM199.101 15.8332C197.822 15.8332 197.183 16.2122 197.183 16.9703C197.183 17.6904 197.855 18.2211 199.201 18.5622L201.489 19.1734C203.858 19.7988 205.043 21.168 205.043 23.2811C205.043 24.7309 204.536 25.9201 203.522 26.8487C203.01 27.3035 202.323 27.6447 201.461 27.8721C200.599 28.09 199.67 28.2085 198.675 28.2274C197.69 28.2464 196.732 28.1753 195.804 28.0142C194.875 27.8531 194.093 27.6162 193.459 27.3035C193.449 27.1993 193.44 27.0951 193.43 26.9908C193.43 26.8771 193.43 26.7682 193.43 26.6639C193.43 25.5932 193.643 24.6314 194.07 23.7786H196.486C196.751 24.2618 196.917 24.7451 196.984 25.2284C197.353 25.3515 197.907 25.4131 198.647 25.4131C200.352 25.4131 201.205 24.9251 201.205 23.9491C201.205 23.6459 201.091 23.3901 200.864 23.1816C200.617 22.9826 200.158 22.7836 199.485 22.5846L197.183 21.9166C195.998 21.585 195.074 21.097 194.411 20.4526C193.757 19.7988 193.43 18.837 193.43 17.5673C193.43 16.288 193.947 15.2457 194.979 14.4403C195.491 14.0328 196.131 13.7296 196.898 13.5306C197.675 13.3316 198.504 13.2274 199.386 13.2179C200.267 13.199 201.129 13.2653 201.973 13.4169C202.816 13.559 203.569 13.7722 204.232 14.0565C204.242 14.1513 204.247 14.246 204.247 14.3408C204.256 14.4355 204.261 14.535 204.261 14.6393C204.261 15.6342 204.048 16.5676 203.621 17.4393H201.233C200.968 16.975 200.802 16.506 200.736 16.0322C200.177 15.8995 199.632 15.8332 199.101 15.8332Z" fill="#0B6377"/>
<defs>
<radialGradient id="paint0_radial_4403_2895" cx="0" cy="0" r="1" gradientUnits="userSpaceOnUse" gradientTransform="translate(20.4421 22.3876) scale(22.2227)">
<stop offset="0.02" stop-color="#CDE0E3"/>
<stop offset="1" stop-color="#0B6377"/>
</radialGradient>
</defs>
</svg>
