<svg width="139" height="176" viewBox="0 0 139 176" fill="none" xmlns="http://www.w3.org/2000/svg">
<path d="M102.822 76.0464C77.6721 32.4962 50.5546 -0.769817 44.3696 0.0135573C38.1846 -0.769817 11.058 32.4871 -14.0828 76.0464C-39.2328 119.606 -53.1604 157.435 -49.3893 162.409C-47.9956 165.734 -33.6854 169.532 -12.1426 172.155C-5.72987 172.939 1.3205 173.576 8.86275 174.132C24.9857 175.334 38.7403 173.713 48.2592 162.063C59.946 147.743 59.9733 124.005 46.9657 104.111C46.3007 103.091 44.7522 103.774 44.9162 104.977C45.7086 110.779 45.9546 118.749 44.3058 127.831C42.3839 138.397 34.6503 146.678 24.1021 146.678C15.4759 146.678 8.1067 141.285 5.1736 133.697C2.08565 125.672 5.00053 115.989 8.49839 106.625C17.9535 81.3114 36.6907 59.1856 41.4274 54.2485C43.2583 52.3447 45.3443 52.2172 47.3027 54.2485C53.7063 60.9163 85.7609 99.0739 85.7609 134.025C85.7609 150.813 75.823 165.269 61.5036 171.855C59.8458 172.62 60.3377 175.134 62.1686 175.07C104.024 173.649 135.997 167.464 138.119 162.409C141.891 157.435 127.963 119.606 102.822 76.0555V76.0464Z" fill="url(#paint0_radial_4403_3192)" fill-opacity="0.21"/>
<defs>
<radialGradient id="paint0_radial_4403_3192" cx="0" cy="0" r="1" gradientUnits="userSpaceOnUse" gradientTransform="translate(48.9241 103.929) scale(107.541 107.541)">
<stop offset="0.02" stop-color="white"/>
<stop offset="1" stop-color="white"/>
</radialGradient>
</defs>
</svg>
