<svg width="206" height="37" viewBox="0 0 206 37" fill="none" xmlns="http://www.w3.org/2000/svg">
<path d="M31.6638 15.7145C26.4667 6.71516 20.863 -0.159078 19.5849 0.00280153C18.3068 -0.159078 12.7013 6.71328 7.50606 15.7145C2.30897 24.7158 -0.569097 32.5331 0.210184 33.5608C0.49818 34.2479 3.45531 35.0328 7.907 35.5749C9.23215 35.7368 10.6891 35.8686 12.2476 35.9834C15.5793 36.2319 18.4216 35.8968 20.3887 33.4893C22.8037 30.5303 22.8093 25.625 20.1214 21.514C19.984 21.3032 19.664 21.4443 19.6979 21.6928C19.8616 22.8918 19.9124 24.5389 19.5717 26.4155C19.1746 28.599 17.5765 30.3101 15.3968 30.3101C13.6142 30.3101 12.0914 29.1957 11.4853 27.6278C10.8472 25.9694 11.4495 23.9685 12.1723 22.0335C14.1262 16.8025 17.9981 12.2304 18.9769 11.2101C19.3553 10.8167 19.7863 10.7904 20.191 11.2101C21.5143 12.588 28.1382 20.4731 28.1382 27.6955C28.1382 31.1646 26.0846 34.1519 23.1256 35.5128C22.783 35.6709 22.8846 36.1904 23.263 36.1773C31.9122 35.8836 38.5192 34.6055 38.9578 33.5608C39.7371 32.5331 36.859 24.7158 31.6638 15.7164V15.7145Z" fill="url(#paint0_radial_4403_3194)"/>
<path d="M62.5648 21.7588L64.7252 22.0288V27.0889H51.2082L50.9239 24.6726C51.1797 24.3409 51.7151 24.0187 52.53 23.706V10.4022C51.7246 10.1179 51.1892 9.79098 50.9239 9.42143L51.2082 7.00513H64.4836V12.0651L62.3374 12.3352C61.8825 11.9467 61.5224 11.2266 61.2571 10.1747H56.723V15.1779H60.7597C60.9965 14.6094 61.2382 14.2019 61.4845 13.9556L63.3181 14.1688V19.3425L61.4845 19.5841C61.2477 19.3851 61.006 18.9777 60.7597 18.3618H56.723V23.9192H61.4845C61.7404 22.8959 62.1005 22.1757 62.5648 21.7588ZM73.2818 15.2774C71.5004 15.2774 70.6096 16.8077 70.6096 19.8684C70.6096 21.4224 70.856 22.5074 71.3487 23.1233C71.8415 23.7297 72.5569 24.033 73.495 24.033C74.9448 24.033 76.2429 23.8956 77.3895 23.6208L78.2707 25.8665C77.6453 26.274 76.8067 26.6198 75.7549 26.9041C74.7126 27.1789 73.694 27.3163 72.699 27.3163C68.5108 27.3163 66.4166 24.8905 66.4166 20.0389C66.4166 17.1962 67.1463 15.159 68.6055 13.9271C69.9037 12.8469 71.4861 12.3068 73.3529 12.3068C75.2196 12.3068 76.7688 12.6526 78.0007 13.3444C78.0102 13.4391 78.0149 13.5339 78.0149 13.6286C78.0244 13.7234 78.0291 13.8134 78.0291 13.8987C78.0291 15.0074 77.778 16.0544 77.2758 17.0399H74.7174C74.4426 16.5472 74.2767 15.9691 74.2199 15.3058C74.0967 15.2964 73.9546 15.2916 73.7935 15.2916C73.6419 15.2821 73.4713 15.2774 73.2818 15.2774ZM93.5219 19.4562C93.5219 21.3513 93.1997 22.8769 92.5554 24.033C91.911 25.1795 91.0345 26.0134 89.9258 26.5345C88.8267 27.0462 87.5854 27.3021 86.2019 27.3021C84.0414 27.3021 82.3785 26.7288 81.2129 25.5822C80.0569 24.4262 79.4789 22.4884 79.4789 19.7689C79.4789 17.3242 80.1185 15.4717 81.3977 14.2114C82.6864 12.9417 84.4442 12.3068 86.6709 12.3068C88.9451 12.3068 90.6555 12.8658 91.802 13.984C92.9486 15.1021 93.5219 16.9262 93.5219 19.4562ZM83.7145 19.6978C83.7145 22.7964 84.6479 24.3457 86.5146 24.3457C87.4622 24.3457 88.1634 23.9951 88.6182 23.2939C89.073 22.5832 89.3005 21.4224 89.3005 19.8115C89.3005 16.7888 88.3481 15.2774 86.4435 15.2774C85.5149 15.2774 84.8279 15.6138 84.3826 16.2866C83.9372 16.9499 83.7145 18.087 83.7145 19.6978ZM110.905 12.8895C110.905 14.2067 110.493 15.3106 109.668 16.2013C108.844 17.092 107.811 17.7695 106.57 18.2338C107.536 18.6413 108.176 19.1388 108.489 19.7263L110.607 23.7771C111.535 24.0709 112.161 24.4262 112.483 24.8431L112.184 27.0889H107.266L103.912 19.9537C103.618 19.2335 103.263 18.8734 102.846 18.8734H100.956V23.5355C102.358 23.8482 103.239 24.2272 103.599 24.6726L103.301 27.0889H95.4407L95.1564 24.6726C95.4123 24.3409 95.9477 24.0187 96.7626 23.706V10.4022C95.9571 10.1179 95.4218 9.79098 95.1564 9.42143L95.4407 7.00513H102.874C104.684 7.02408 106.181 7.21833 107.366 7.58788C108.55 7.94796 109.436 8.5544 110.024 9.40722C110.611 10.2506 110.905 11.4113 110.905 12.8895ZM102.661 10.1747H100.956V15.7038H102.604C103.931 15.7038 104.916 15.5048 105.561 15.1068C106.215 14.7089 106.541 13.9935 106.541 12.9606C106.541 11.9372 106.21 11.2171 105.547 10.8001C104.893 10.3832 103.931 10.1747 102.661 10.1747ZM120.258 27.3163C117.927 27.3163 116.174 26.6956 114.999 25.4543C113.824 24.213 113.236 22.4079 113.236 20.0389C113.236 18.6081 113.44 17.3763 113.847 16.3434C114.255 15.3011 114.809 14.4957 115.51 13.9271C116.865 12.8469 118.448 12.3068 120.258 12.3068C121.461 12.3068 122.475 12.5058 123.299 12.9037C124.133 13.2923 124.763 13.9508 125.19 14.8794C125.626 15.7986 125.843 17.0541 125.843 18.646C125.843 20.0484 125.152 20.7496 123.768 20.7496H117.457C117.533 21.972 117.846 22.8343 118.396 23.3365C118.955 23.8387 119.836 24.0898 121.039 24.0898C121.693 24.0898 122.319 24.014 122.915 23.8624C123.522 23.7013 123.963 23.545 124.237 23.3933L124.65 23.1659L125.517 25.4827C125.412 25.6059 125.247 25.7765 125.019 25.9944C124.867 26.1366 124.56 26.3119 124.095 26.5203C123.631 26.7288 123.062 26.9136 122.39 27.0747C121.726 27.2357 121.016 27.3163 120.258 27.3163ZM117.486 18.3333L122.091 18.1485C122.129 17.9117 122.148 17.5847 122.148 17.1678C122.148 16.7793 121.992 16.3671 121.679 15.9312C121.366 15.4954 120.826 15.2774 120.059 15.2774C119.291 15.2774 118.704 15.5096 118.296 15.9739C117.889 16.4382 117.619 17.2247 117.486 18.3333ZM148.5 15.8886L144.861 27.2594H141.08L139.588 22.6685C139.294 21.7304 139.053 20.5648 138.863 19.1719L138.778 18.4755H138.366C138.271 19.2335 138.148 19.9584 137.996 20.6501C137.854 21.3419 137.688 22.0052 137.499 22.64L136.134 27.2594H131.998L128.331 15.8175C127.497 15.5333 126.924 15.1874 126.611 14.7799L126.895 12.5342H133.718L134.002 14.7799C133.651 15.1874 133.059 15.5333 132.225 15.8175L133.917 23.2512H134.329C134.433 22.73 134.547 22.2089 134.67 21.6877C134.793 21.1571 134.931 20.617 135.082 20.0674L137.058 12.5911H140.327L142.274 20.0105L142.999 23.2512H143.411C144.122 19.9631 144.605 17.76 144.861 16.6419L145.032 15.8175C144.169 15.5238 143.591 15.1779 143.298 14.7799L143.582 12.5342H150.049L150.333 14.7799C150.011 15.2158 149.4 15.5854 148.5 15.8886ZM151.627 14.6947C151.627 14.543 151.627 14.3914 151.627 14.2398C151.636 14.0787 151.646 13.9176 151.655 13.7566C153.465 12.79 155.408 12.3068 157.483 12.3068C159.558 12.3068 161.046 12.7 161.946 13.4865C162.846 14.273 163.296 15.5759 163.296 17.3952V23.5923C163.969 23.7345 164.504 23.9003 164.902 24.0898V26.6198C163.936 27.0841 162.519 27.3163 160.652 27.3163C160.453 26.7951 160.288 26.1839 160.155 25.4827C159.321 26.7051 157.81 27.3163 155.621 27.3163C154.759 27.3163 153.967 27.1457 153.247 26.8046C152.537 26.4635 151.968 25.9802 151.542 25.3548C151.115 24.7199 150.902 23.9666 150.902 23.0949C150.902 21.7967 151.333 20.7781 152.195 20.0389C153.058 19.2904 154.342 18.9161 156.047 18.9161H159.231V17.5089C159.231 15.9928 158.426 15.2348 156.815 15.2348C156.189 15.2348 155.692 15.2964 155.322 15.4195C155.275 16.2439 155.161 16.8741 154.981 17.3099H152.124C151.793 16.6182 151.627 15.7465 151.627 14.6947ZM156.872 24.3457C157.867 24.3457 158.653 24.0566 159.231 23.4786V21.0908H157.184C155.791 21.0908 155.095 21.6261 155.095 22.6969C155.095 23.1801 155.242 23.5781 155.536 23.8908C155.839 24.194 156.284 24.3457 156.872 24.3457ZM174.667 16.116C173.208 16.116 172.189 16.3955 171.611 16.9546V23.6208C173.203 23.924 174.283 24.3314 174.852 24.8431L174.553 27.0889H166.224L165.94 24.8431C166.205 24.4736 166.741 24.1467 167.546 23.8624V15.7607C166.854 15.5333 166.319 15.2063 165.94 14.7799L166.224 12.5342C167.266 12.2973 168.228 12.1789 169.11 12.1789C169.536 12.1789 169.924 12.1883 170.275 12.2073C170.635 12.2168 170.957 12.231 171.242 12.2499V14.0835C171.687 13.5528 172.26 13.117 172.961 12.7758C173.549 12.501 174.136 12.3399 174.724 12.2926C175.311 12.2452 175.752 12.2878 176.046 12.4205L175.96 16.2013C175.581 16.1444 175.15 16.116 174.667 16.116ZM184.503 8.66811L184.787 6.42237C185.896 6.16653 186.957 6.03861 187.971 6.03861C188.975 6.03861 189.838 6.06703 190.558 6.12389V23.5923C191.155 23.6966 191.69 23.8624 192.164 24.0898V26.3924C190.989 27.0083 189.511 27.3163 187.729 27.3163C187.54 27.2215 187.35 27.051 187.161 26.8046C186.981 26.5488 186.881 26.3024 186.862 26.0655C186.436 26.4161 185.881 26.7146 185.199 26.9609C184.517 27.1978 183.849 27.3163 183.195 27.3163C181.101 27.3163 179.58 26.7525 178.633 25.6249C177.694 24.4878 177.225 22.6258 177.225 20.0389C177.225 17.111 177.946 15.0547 179.386 13.8703C180.656 12.8279 182.205 12.3068 184.034 12.3068C184.83 12.3068 185.645 12.4015 186.478 12.5911V9.7057C185.597 9.46881 184.939 9.12295 184.503 8.66811ZM183.806 24.3457C184.924 24.3457 185.815 24.0187 186.478 23.3649V15.5617C185.664 15.3722 184.82 15.2774 183.948 15.2774C183.058 15.2774 182.413 15.6659 182.015 16.4429C181.617 17.2199 181.418 18.3949 181.418 19.9679C181.418 21.5314 181.613 22.6542 182.001 23.3365C182.39 24.0093 182.991 24.3457 183.806 24.3457ZM199.185 14.9221C197.906 14.9221 197.267 15.3011 197.267 16.0592C197.267 16.7793 197.939 17.3099 199.285 17.6511L201.573 18.2623C203.942 18.8877 205.127 20.2569 205.127 22.37C205.127 23.8198 204.62 25.009 203.606 25.9376C203.094 26.3924 202.407 26.7335 201.545 26.9609C200.683 27.1789 199.754 27.2973 198.759 27.3163C197.773 27.3352 196.816 27.2642 195.888 27.1031C194.959 26.942 194.177 26.7051 193.543 26.3924C193.533 26.2882 193.524 26.1839 193.514 26.0797C193.514 25.966 193.514 25.857 193.514 25.7528C193.514 24.682 193.727 23.7203 194.154 22.8674H196.57C196.835 23.3507 197.001 23.834 197.068 24.3172C197.437 24.4404 197.991 24.502 198.731 24.502C200.436 24.502 201.289 24.014 201.289 23.038C201.289 22.7348 201.175 22.4789 200.948 22.2705C200.701 22.0715 200.242 21.8725 199.569 21.6735L197.267 21.0055C196.082 20.6738 195.158 20.1858 194.495 19.5415C193.841 18.8877 193.514 17.9259 193.514 16.6561C193.514 15.3769 194.031 14.3346 195.063 13.5291C195.575 13.1217 196.215 12.8185 196.982 12.6195C197.759 12.4205 198.588 12.3163 199.47 12.3068C200.351 12.2878 201.213 12.3542 202.057 12.5058C202.9 12.6479 203.653 12.8611 204.316 13.1454C204.326 13.2401 204.331 13.3349 204.331 13.4297C204.34 13.5244 204.345 13.6239 204.345 13.7281C204.345 14.7231 204.132 15.6564 203.705 16.5282H201.317C201.052 16.0639 200.886 15.5948 200.82 15.1211C200.261 14.9884 199.716 14.9221 199.185 14.9221Z" fill="white"/>
<defs>
<radialGradient id="paint0_radial_4403_3194" cx="0" cy="0" r="1" gradientUnits="userSpaceOnUse" gradientTransform="translate(20.5261 21.4763) scale(22.2227)">
<stop offset="0.02" stop-color="white"/>
<stop offset="1" stop-color="white"/>
</radialGradient>
</defs>
</svg>
